<svg version="1.1" xmlns="http://www.w3.org/2000/svg" viewBox="0 0 1242 787" width="1242" height="787">
  <!-- svg-source:excalidraw -->
  
  <defs>
    <style class="style-fonts">
      @font-face {
        font-family: "Virgil";
        src: url("https://excalidraw.com/Virgil.woff2");
      }
      @font-face {
        font-family: "Cascadia";
        src: url("https://excalidraw.com/Cascadia.woff2");
      }
      @font-face {
        font-family: "Assistant";
        src: url("https://excalidraw.com/Assistant-Regular.woff2");
      }
    </style>
    
  </defs>
  <g stroke-linecap="round" transform="translate(13 10) rotate(0 608 44)"><path d="M22 0 C441.88 -4.83, 861.39 -6.68, 1194 0 C1209.77 -2.88, 1218.11 9.78, 1216 22 C1215.59 30.82, 1217.4 40.5, 1216 66 C1212.91 77.14, 1209.62 87.59, 1194 88 C738.91 86.79, 282.94 88.42, 22 88 C7.45 85.07, 0.44 80.4, 0 66 C-2.99 50.69, 2.67 41.44, 0 22 C-3.19 7.16, 8.8 0.09, 22 0" stroke="none" stroke-width="0" fill="#a5d8ff"></path><path d="M22 0 C379.56 -3.93, 736.8 -4.41, 1194 0 M22 0 C380.18 -3.74, 738.99 -4.37, 1194 0 M1194 0 C1208.39 -1.68, 1215.39 6.69, 1216 22 M1194 0 C1209.55 -1.49, 1217.26 6.24, 1216 22 M1216 22 C1216.3 33.44, 1215.69 40.21, 1216 66 M1216 22 C1217.13 33.84, 1216.4 43.68, 1216 66 M1216 66 C1217.07 80.9, 1206.97 87.6, 1194 88 M1216 66 C1217.84 80.05, 1209.48 88.37, 1194 88 M1194 88 C920.16 90.91, 645.23 90.63, 22 88 M1194 88 C854.73 91.77, 515.81 91.37, 22 88 M22 88 C7.43 89.17, -0.34 80.02, 0 66 M22 88 C6.94 89.92, -1.8 81.02, 0 66 M0 66 C-1.87 52.05, -0.55 39.25, 0 22 M0 66 C-0.51 55.9, 0.33 44.5, 0 22 M0 22 C-0.29 6.56, 6.55 -0.3, 22 0 M0 22 C1.02 5.04, 7.12 -0.12, 22 0" stroke="#1e1e1e" stroke-width="2" fill="none"></path></g><g transform="translate(86 26) rotate(0 500.7161560058594 25.937255023174544)"><text x="0" y="0" font-family="Virgil, Segoe UI Emoji" font-size="41.499608037079255px" fill="#1e1e1e" text-anchor="start" style="white-space: pre;" direction="ltr" dominant-baseline="text-before-edge">Memory Management in GO Programming Language</text></g><g stroke-linecap="round" transform="translate(94 184) rotate(0 120.5 45.5)"><path d="M22.75 0 C61.25 -2.79, 105.07 -5.45, 218.25 0 C229.98 -0.57, 244.17 7.8, 241 22.75 C242.23 41.76, 241.34 58.53, 241 68.25 C241.11 81.49, 236.56 92.8, 218.25 91 C161.29 85.04, 110.85 87.02, 22.75 91 C5.7 90.68, -2.64 84.47, 0 68.25 C-2.47 53.1, 1.35 35.16, 0 22.75 C-0.99 8.07, 5.36 -0.98, 22.75 0" stroke="none" stroke-width="0" fill="#b2f2bb"></path><path d="M22.75 0 C96.76 -2.8, 168.78 -2.38, 218.25 0 M22.75 0 C98.51 -1.36, 175.83 -0.82, 218.25 0 M218.25 0 C234.38 1.89, 242.97 6.41, 241 22.75 M218.25 0 C234.33 -1.62, 241.7 5.4, 241 22.75 M241 22.75 C240.66 34.89, 242.89 48.91, 241 68.25 M241 22.75 C240.46 39.96, 241.72 59.68, 241 68.25 M241 68.25 C239.25 81.86, 234.16 91.9, 218.25 91 M241 68.25 C239.73 82.21, 234.84 91.56, 218.25 91 M218.25 91 C158.3 93.36, 94.47 93.87, 22.75 91 M218.25 91 C146.13 92.79, 71.62 92.07, 22.75 91 M22.75 91 C9.4 92.2, -1.1 83.45, 0 68.25 M22.75 91 C8.85 92.21, -1.79 84.53, 0 68.25 M0 68.25 C-0.07 52.97, -0.88 34.11, 0 22.75 M0 68.25 C0.5 56.06, -0.53 44.88, 0 22.75 M0 22.75 C-0.47 6.45, 6.59 0.04, 22.75 0 M0 22.75 C-2.24 8.09, 7.95 -0.63, 22.75 0" stroke="#1e1e1e" stroke-width="2" fill="none"></path></g><g stroke-linecap="round" transform="translate(846 185) rotate(0 120.5 45.5)"><path d="M22.75 0 C87.24 -4.75, 150.18 1.45, 218.25 0 C235.19 -2.58, 241.31 7.46, 241 22.75 C240.48 36.25, 239.33 45.97, 241 68.25 C239.63 82.61, 236.68 89.01, 218.25 91 C140.05 96.51, 67.75 94.94, 22.75 91 C11.18 88.66, 0.56 82.7, 0 68.25 C0.04 50.74, -1.48 34.88, 0 22.75 C-2.63 9.22, 10.78 -1.09, 22.75 0" stroke="none" stroke-width="0" fill="#b2f2bb"></path><path d="M22.75 0 C94.42 2.07, 169.82 0.7, 218.25 0 M22.75 0 C91.91 -2.39, 162.16 -1, 218.25 0 M218.25 0 C235.34 -1.5, 239.06 8.71, 241 22.75 M218.25 0 C232.24 2.19, 238.75 5.84, 241 22.75 M241 22.75 C242.4 38.88, 238.94 56.22, 241 68.25 M241 22.75 C240.01 37.3, 241.24 50.64, 241 68.25 M241 68.25 C241.86 84.13, 231.84 92.6, 218.25 91 M241 68.25 C241.97 85.13, 232.54 89.39, 218.25 91 M218.25 91 C143.58 90.44, 64.4 90.52, 22.75 91 M218.25 91 C148.86 89.61, 81.61 90.43, 22.75 91 M22.75 91 C5.96 92.49, -0.29 85.1, 0 68.25 M22.75 91 C9.57 92.63, 1.61 84.99, 0 68.25 M0 68.25 C0.96 52.79, 0.75 34.73, 0 22.75 M0 68.25 C-0.43 56.91, -0.71 45.03, 0 22.75 M0 22.75 C-1.09 8.33, 6.03 1.03, 22.75 0 M0 22.75 C-0.45 9.55, 9.14 -0.25, 22.75 0" stroke="#1e1e1e" stroke-width="2" fill="none"></path></g><g transform="translate(136 202) rotate(0 72.46185302734375 31.5)"><text x="0" y="0" font-family="Virgil, Segoe UI Emoji" font-size="50.40000000000001px" fill="#1e1e1e" text-anchor="start" style="white-space: pre;" direction="ltr" dominant-baseline="text-before-edge">new ()</text></g><g transform="translate(879 199) rotate(0 86.08818054199219 30)"><text x="0" y="0" font-family="Virgil, Segoe UI Emoji" font-size="47.99999999999998px" fill="#1e1e1e" text-anchor="start" style="white-space: pre;" direction="ltr" dominant-baseline="text-before-edge">make ()</text></g><g stroke-linecap="round" transform="translate(14 135) rotate(0 257.5 219)"><path d="M32 0 C209.88 -0.8, 386.96 -0.78, 483 0 M483 0 C503.05 0.41, 514.68 12.33, 515 32 M515 32 C514.61 170.94, 514.29 309.81, 515 406 M515 406 C516.76 426.2, 502.87 436.48, 483 438 M483 438 C371.27 436.76, 258.07 435.68, 32 438 M32 438 C9.91 439.56, -1.19 426.9, 0 406 M0 406 C-0.28 271.9, -0.5 136.94, 0 32 M0 32 C0.71 9.65, 8.73 1.75, 32 0" stroke="#1e1e1e" stroke-width="1.5" fill="none" stroke-dasharray="1.5 7"></path></g><g stroke-linecap="round" transform="translate(726 136) rotate(0 250 220)"><path d="M32 0 C196.46 -1.45, 360.45 -2.4, 468 0 M468 0 C489.78 1.45, 499.21 10.13, 500 32 M500 32 C500.35 141.49, 498.83 250.67, 500 408 M500 408 C501.41 427.64, 490.86 441.91, 468 440 M468 440 C379.63 438.26, 290.61 438.7, 32 440 M32 440 C10.36 439, -1.23 429.89, 0 408 M0 408 C0.64 290.32, 1.23 173.28, 0 32 M0 32 C0.46 9.13, 10.13 0.08, 32 0" stroke="#1e1e1e" stroke-width="1.5" fill="none" stroke-dasharray="1.5 7"></path></g><g transform="translate(19 326) rotate(0 246.795285644532 18.09670272973966)"><text x="0" y="0" font-family="Virgil, Segoe UI Emoji" font-size="28.954724367583477px" fill="#1e1e1e" text-anchor="start" style="white-space: pre;" direction="ltr" dominant-baseline="text-before-edge">allocate memory but not initialized</text></g><g transform="translate(746 331) rotate(0 235.32179260253906 19.587795372121718)"><text x="0" y="0" font-family="Virgil, Segoe UI Emoji" font-size="31.340472595394743px" fill="#1e1e1e" text-anchor="start" style="white-space: pre;" direction="ltr" dominant-baseline="text-before-edge">allocate memory and initialized</text></g><g transform="translate(26 406) rotate(0 225.85651611328126 19)"><text x="0" y="0" font-family="Virgil, Segoe UI Emoji" font-size="30.399999999999995px" fill="#1e1e1e" text-anchor="start" style="white-space: pre;" direction="ltr" dominant-baseline="text-before-edge">you will get a memory address</text></g><g transform="translate(745 413) rotate(0 219.866455078125 18.5)"><text x="439.73291015625" y="0" font-family="Virgil, Segoe UI Emoji" font-size="29.60000000000004px" fill="#1e1e1e" text-anchor="end" style="white-space: pre;" direction="ltr" dominant-baseline="text-before-edge">you will get a memory address</text></g><g transform="translate(26.480178833007812 490) rotate(0 108.3742712402343 18)"><text x="216.74854248046853" y="0" font-family="Virgil, Segoe UI Emoji" font-size="28.79999999999996px" fill="#1e1e1e" text-anchor="end" style="white-space: pre;" direction="ltr" dominant-baseline="text-before-edge">zeroed storage</text></g><g transform="translate(740.9602203369141 496) rotate(0 126.74625457763682 16.5)"><text x="253.49250915527358" y="0" font-family="Virgil, Segoe UI Emoji" font-size="26.400000000000013px" fill="#1e1e1e" text-anchor="end" style="white-space: pre;" direction="ltr" dominant-baseline="text-before-edge">Non-zeroed storage</text></g><g stroke-linecap="round" transform="translate(10 614) rotate(0 611 81.5)"><path d="M32 0 C358.08 5.79, 681.56 5.59, 1190 0 C1210.43 0.71, 1223.89 9.56, 1222 32 C1221.65 52.5, 1221.78 70.03, 1222 131 C1224.54 155.26, 1209.01 160.99, 1190 163 C930.6 168.9, 674.59 168.4, 32 163 C9.36 166.36, 2.04 153.27, 0 131 C-1.88 90.3, -0.36 54.42, 0 32 C1.68 9.26, 11.92 -1.52, 32 0" stroke="none" stroke-width="0" fill="#a5d8ff"></path><path d="M32 0 C277.17 -0.05, 523.08 -0.24, 1190 0 M32 0 C444.5 1.28, 856.42 1.14, 1190 0 M1190 0 C1212.35 1.2, 1222.46 12.2, 1222 32 M1190 0 C1209.87 0.16, 1221.07 10.41, 1222 32 M1222 32 C1223.12 65.94, 1221.89 96.61, 1222 131 M1222 32 C1222.5 62.3, 1222.55 91.47, 1222 131 M1222 131 C1222.41 151.19, 1213.29 163.29, 1190 163 M1222 131 C1220.56 152.76, 1211.88 160.94, 1190 163 M1190 163 C731.17 163.53, 270.54 162.52, 32 163 M1190 163 C903.61 166.57, 616.46 166.63, 32 163 M32 163 C12.4 163.72, 1.95 153.52, 0 131 M32 163 C11.56 164.49, 0.11 153.08, 0 131 M0 131 C-0.76 96.72, 0.98 68.18, 0 32 M0 131 C1.88 96.35, 1.25 59.66, 0 32 M0 32 C-1.57 9.58, 12.04 -1.93, 32 0 M0 32 C2.13 10.5, 10.47 0.56, 32 0" stroke="#1e1e1e" stroke-width="2" fill="none"></path></g><g transform="translate(46.98046875 650) rotate(0 268.63289062499996 16.5)"><text x="537.2657812499999" y="0" font-family="Virgil, Segoe UI Emoji" font-size="26.39999999999998px" fill="#1e1e1e" text-anchor="end" style="white-space: pre;" direction="ltr" dominant-baseline="text-before-edge">Garbage collection happens automatically</text></g><g transform="translate(46.580230712890625 706) rotate(0 121.22865234375007 16)"><text x="242.4573046875001" y="0" font-family="Virgil, Segoe UI Emoji" font-size="25.600000000000005px" fill="#1e1e1e" text-anchor="end" style="white-space: pre;" direction="ltr" dominant-baseline="text-before-edge">Out of scope or nil</text></g></svg>